#!OML:ASF I:\golf\golf\golf 2\Subject 1\2002-09-07\Subject1.ASF
:FULLY-SPECIFIED
:DEGREES
317
root 2.00601 10.1518 -3.61699 13.855 -6.1126 -5.24249
lowerback 40.5473 8.59669 3.35424
upperback 16.0937 11.6971 6.69975
thorax -2.16741 5.36396 1.20029
lowerneck -9.18964 -6.65843 0.674687
upperneck 23.898 -6.87684 -9.72098
head 8.54542 -4.00595 -4.0454
rclavicle 6.36111e-014 3.4191e-014
rhumerus 24.2071 -0.770341 -74.3213
rradius 38.7603
rwrist -13.4336
rhand -43.4049 26.8535
rfingers 7.12502
rthumb -16.2483 -2.48563
lclavicle 6.36111e-014 3.4191e-014
lhumerus -27.751 -46.1309 92.0755
lradius 105.372
lwrist -11.6318
lhand -43.1897 8.65613
lfingers 7.12502
lthumb -16.0411 38.0121
rfemur -95.4533 -59.2598 41.7643
rtibia 139.038
rfoot -28.0357 14.2568
rtoes -13.7059
lfemur -101.682 16.9132 -25.1615
ltibia 128.815
lfoot -27.5451 -11.1385
ltoes -16.9867
318
root 2.00392 10.1654 -3.6128 13.7138 -6.13118 -5.23168
lowerback 40.816 8.61938 3.33283
upperback 16.0673 11.7242 6.70076
thorax -2.27945 5.36845 1.1776
lowerneck -9.16797 -6.64799 0.695846
upperneck 23.9363 -6.86332 -9.72267
head 8.5541 -3.99757 -4.0491
rclavicle -6.04305e-014 4.6118e-014
rhumerus 24.3233 -0.932172 -74.4961
rradius 38.5418
rwrist -13.317
rhand -43.2931 26.7775
rfingers 7.12502
rthumb -16.1406 -2.57039
lclavicle -6.04305e-014 4.6118e-014
lhumerus -27.7006 -46.174 92.0224
lradius 105.293
lwrist -11.6577
lhand -43.0898 8.60275
lfingers 7.12502
lthumb -15.9449 37.9664
rfemur -94.9392 -59.3513 41.4168
rtibia 138.923
rfoot -28.065 14.2944
rtoes -13.609
lfemur -101.359 17.04 -25.1016
ltibia 128.709
lfoot -27.6273 -11.3899
ltoes -16.4982
319
root 2.00295 10.1762 -3.60796 13.6937 -6.09408 -5.32043
lowerback 40.9368 8.59694 3.40764
upperback 16.0547 11.7276 6.71194
thorax -2.31795 5.3691 1.14195
lowerneck -9.36299 -6.62484 0.725441
upperneck 24.1322 -6.82047 -9.73245
head 8.65816 -3.98011 -4.07286
rclavicle -8.5875e-014 5.56597e-015
rhumerus 24.464 -1.01704 -74.6211
rradius 38.3464
rwrist -13.158
rhand -43.2916 27.0589
rfingers 7.12502
rthumb -16.1392 -2.28916
lclavicle -8.5875e-014 5.56597e-015
lhumerus -27.6643 -46.1942 91.9493
lradius 105.189
lwrist -11.7282
lhand -42.9405 8.69456
lfingers 7.12502
lthumb -15.801 38.0697
rfemur -94.6247 -59.338 41.3322
rtibia 138.812
rfoot -28.0861 14.2116
rtoes -15.3317
lfemur -101.234 17.115 -24.9579
ltibia 128.633
lfoot -27.5388 -11.7106
ltoes -15.6898
320
root 2.00288 10.1844 -3.60265 13.6783 -6.02206 -5.45928
lowerback 40.9974 8.54312 3.57207
upperback 16.0547 11.724 6.73054
thorax -2.3105 5.37223 1.08061
lowerneck -9.4051 -6.61218 0.716192
upperneck 24.1787 -6.81201 -9.66968
head 8.68563 -3.97163 -4.05393
rclavicle -1.17681e-013 5.56597e-015
rhumerus 24.4875 -1.15057 -74.7557
rradius 38.3908
rwrist -13.0207
rhand -43.1447 26.9757
rfingers 7.12502
rthumb -15.9977 -2.38379
lclavicle -1.17681e-013 5.56597e-015
lhumerus -27.6575 -46.2473 91.8717
lradius 105.035
lwrist -11.8063
lhand -42.9002 8.75708
lfingers 7.12502
lthumb -15.7623 38.1353
rfemur -94.327 -59.3411 41.3037
rtibia 138.722
rfoot -28.1593 14.2
rtoes -16.9211
lfemur -101.161 17.1768 -24.7814
ltibia 128.603
lfoot -27.4152 -11.9997
ltoes -14.8653
321
root 2.00412 10.1901 -3.59988 13.6251 -5.94814 -5.53664
lowerback 41.1396 8.50389 3.7241
upperback 16.0243 11.7385 6.73833
thorax -2.36032 5.38158 0.998158
lowerneck -9.25891 -6.63317 0.803634
upperneck 24.0308 -6.85898 -9.7095
head 8.59862 -3.98687 -4.07083
rclavicle 7.95139e-014 3.26007e-014
rhumerus 24.4168 -1.32402 -74.8505
rradius 38.3622
rwrist -12.7772
rhand -42.8689 26.939
rfingers 7.12502
rthumb -15.7321 -2.4416
lclavicle 7.95139e-014 3.26007e-014
lhumerus -27.6508 -46.3639 91.8429
lradius 104.951
lwrist -11.8517
lhand -42.9242 8.85683
lfingers 7.12502
lthumb -15.7853 38.2332
rfemur -94.0761 -59.3397 41.2186
rtibia 138.655
rfoot -28.2035 14.1816
rtoes -15.615
lfemur -101.092 17.1838 -24.6934
ltibia 128.592
lfoot -27.3596 -12.1448
ltoes -14.6326
322
root 2.00617 10.1895 -3.5963 13.7184 -5.88682 -5.48553
lowerback 41.0971 8.51136 3.75878
upperback 15.9879 11.7624 6.72209
thorax -2.37885 5.39621 0.956436
lowerneck -9.25951 -6.69083 0.940444
upperneck 24.0082 -6.94485 -9.80051
head 8.57464 -4.02358 -4.12935
rclavicle -8.26944e-014 -4.77083e-014
rhumerus 24.4008 -1.5307 -74.8809
rradius 38.1956
rwrist -12.5904
rhand -42.5695 27.0978
rfingers 7.12502
rthumb -15.4437 -2.30526
lclavicle -8.26944e-014 -4.77083e-014
lhumerus -27.5731 -46.5171 91.8189
lradius 104.916
lwrist -11.8685
lhand -43.0618 9.02612
lfingers 7.12502
lthumb -15.9179 38.392
rfemur -94.2839 -59.2691 41.2735
rtibia 138.659
rfoot -28.1018 14.1606
rtoes -13.8585
lfemur -101.261 17.0539 -24.778
ltibia 128.605
lfoot -27.1603 -12.3097
ltoes -14.1634
323
root 2.0092 10.1864 -3.58946 13.8892 -5.83707 -5.38342
lowerback 40.8944 8.55166 3.74514
upperback 15.9741 11.8028 6.70923
thorax -2.33535 5.42146 0.949635
lowerneck -9.36916 -6.77841 1.02317
upperneck 24.1335 -7.06652 -9.82303
head 8.62486 -4.07636 -4.17191
rclavicle -3.18055e-014 4.37326e-014
rhumerus 24.3853 -1.70338 -74.8226
rradius 38.2773
rwrist -12.6792
rhand -42.5034 26.3503
rfingers 7.12502
rthumb -15.3801 -3.05763
lclavicle -3.18055e-014 4.37326e-014
lhumerus -27.5132 -46.7063 91.835
lradius 104.898
lwrist -11.9
lhand -43.2549 9.18644
lfingers 7.12502
lthumb -16.1038 38.5373
rfemur -94.7139 -59.2658 41.3999
rtibia 138.705
rfoot -27.9882 14.2612
rtoes -12.9747
lfemur -101.47 16.8271 -24.9353
ltibia 128.585
lfoot -26.988 -12.244
ltoes -13.9662
324
root 2.00966 10.1914 -3.58287 13.9181 -5.79544 -5.36075
lowerback 40.8935 8.57727 3.75828
upperback 15.9547 11.8417 6.71838
thorax -2.35678 5.44011 0.936837
lowerneck -9.45396 -6.83462 1.05412
upperneck 24.2949 -7.14074 -9.81177
head 8.69004 -4.1077 -4.19169
rclavicle -6.36111e-014 3.65764e-014
rhumerus 24.3037 -1.60665 -74.6803
rradius 38.5656
rwrist -12.749
rhand -42.856 24.8111
rfingers 7.12502
rthumb -15.7197 -4.57045
lclavicle -6.36111e-014 3.65764e-014
lhumerus -27.5274 -46.8 91.8796
lradius 104.859
lwrist -11.9663
lhand -43.3633 9.27636
lfingers 7.12502
lthumb -16.2082 38.6188
rfemur -94.6767 -59.2868 41.3348
rtibia 138.669
rfoot -27.9743 14.3417
rtoes -12.8419
lfemur -101.39 16.7267 -24.9743
ltibia 128.518
lfoot -27.07 -11.9418
ltoes -14.7171
325
root 2.00797 10.2037 -3.5774 13.8393 -5.77738 -5.36648
lowerback 41.052 8.59237 3.74956
upperback 15.9289 11.8637 6.72274
thorax -2.43418 5.44526 0.922154
lowerneck -9.44046 -6.84674 1.06038
upperneck 24.3329 -7.16855 -9.75615
head 8.70088 -4.11405 -4.17756
rclavicle -2.22639e-014 1.82882e-014
rhumerus 24.2047 -1.54554 -74.6364
rradius 38.2665
rwrist -12.4932
rhand -43.0383 26.603
rfingers 7.12502
rthumb -15.8952 -2.76462
lclavicle -2.22639e-014 1.82882e-014
lhumerus -27.4648 -46.727 91.7591
lradius 104.862
lwrist -11.9267
lhand -43.4792 9.20839
lfingers 7.12502
lthumb -16.3198 38.5417
rfemur -94.2658 -59.2791 41.0458
rtibia 138.579
rfoot -27.959 14.4447
rtoes -12.8554
lfemur -101.15 16.775 -24.9561
ltibia 128.452
lfoot -27.2626 -11.7566
ltoes -15.3776
326
root 2.00894 10.2079 -3.57168 13.8743 -5.72973 -5.39315
lowerback 41.0334 8.58136 3.79804
upperback 15.9094 11.8699 6.72175
thorax -2.44165 5.45054 0.895753
lowerneck -9.28349 -6.86094 1.05406
upperneck 24.1607 -7.22088 -9.65636
head 8.6141 -4.12634 -4.13065
rclavicle 3.49861e-014 -6.52014e-014
rhumerus 24.0971 -1.50463 -74.6242
rradius 38.303
rwrist -12.3876
rhand -43.3588 26.9534
rfingers 7.12502
rthumb -16.2039 -2.38938
lclavicle 3.49861e-014 -6.52014e-014
lhumerus -27.4221 -46.6996 91.6556
lradius 104.915
lwrist -11.887
lhand -43.4083 9.28142
lfingers 7.12502
lthumb -16.2515 38.6203
rfemur -94.219 -59.2223 41.0142
rtibia 138.554
rfoot -27.8826 14.5082
rtoes -12.6887
lfemur -101.152 16.7724 -24.957
ltibia 128.434
lfoot -27.3062 -11.7515
ltoes -15.3779
327
root 2.01215 10.2033 -3.56544 14.0491 -5.61912 -5.4052
lowerback 40.8075 8.53317 3.91604
upperback 15.8922 11.8511 6.71057
thorax -2.3712 5.4536 0.852218
lowerneck -9.1093 -6.89106 1.01781
upperneck 24.0159 -7.29381 -9.52552
head 8.5355 -4.14706 -4.07089
rclavicle -1.90833e-014 2.46493e-014
rhumerus 23.9884 -1.54988 -74.6136
rradius 38.3765
rwrist -12.1967
rhand -43.7892 26.8759
rfingers 7.12502
rthumb -16.6183 -2.43262
lclavicle -1.90833e-014 2.46493e-014
lhumerus -27.5288 -46.8797 91.7643
lradius 104.865
lwrist -12.0275
lhand -43.0557 9.54308
lfingers 7.12502
lthumb -15.912 38.9094
rfemur -94.6771 -59.1831 41.3554
rtibia 138.587
rfoot -27.7747 14.4543
rtoes -13.3875
lfemur -101.404 16.6051 -24.9915
ltibia 128.45
lfoot -27.1781 -11.7529
ltoes -15.217
328
root 2.01272 10.2035 -3.5581 14.154 -5.57109 -5.30287
lowerback 40.6631 8.55203 3.88208
upperback 15.8892 11.8589 6.69439
thorax -2.33475 5.46126 0.860057
lowerneck -9.12219 -6.92485 0.999096
upperneck 24.0952 -7.34373 -9.46772
head 8.56544 -4.16556 -4.05717
rclavicle 6.36111e-014 -7.95139e-015
rhumerus 23.9622 -1.63772 -74.5741
rradius 38.4334
rwrist -12.2365
rhand -44.0029 26.3867
rfingers 7.12502
rthumb -16.824 -2.90442
lclavicle 6.36111e-014 -7.95139e-015
lhumerus -27.5979 -47.0425 91.8824
lradius 104.752
lwrist -12.1878
lhand -42.9431 9.60113
lfingers 7.12502
lthumb -15.8036 38.976
rfemur -94.9191 -59.2424 41.4106
rtibia 138.61
rfoot -27.7278 14.5094
rtoes -13.7444
lfemur -101.487 16.4499 -25.1211
ltibia 128.451
lfoot -27.194 -11.5409
ltoes -15.5989
329
root 2.01141 10.2076 -3.55124 14.1829 -5.57201 -5.23004
lowerback 40.6365 8.60765 3.79807
upperback 15.888 11.8957 6.69146
thorax -2.3431 5.4763 0.885056
lowerneck -9.17357 -6.96078 1.01754
upperneck 24.2061 -7.38778 -9.47194
head 8.60897 -4.18491 -4.07324
rclavicle 4.45278e-014 1.59028e-015
rhumerus 24.0456 -1.77082 -74.6149
rradius 38.366
rwrist -12.2298
rhand -44.1961 25.8944
rfingers 7.12502
rthumb -17.0099 -3.38085
lclavicle 4.45278e-014 1.59028e-015
lhumerus -27.5381 -47.1588 91.8966
lradius 104.612
lwrist -12.2781
lhand -43.2164 9.58498
lfingers 7.12502
lthumb -16.0668 38.9389
rfemur -94.8344 -59.2549 41.2362
rtibia 138.602
rfoot -27.7108 14.625
rtoes -13.4325
lfemur -101.425 16.4106 -25.1998
ltibia 128.439
lfoot -27.2958 -11.4037
ltoes -15.9144
330
root 2.01004 10.2095 -3.5466 14.277 -5.50665 -5.31875
lowerback 40.6089 8.60387 3.85374
upperback 15.8415 11.9159 6.7025
thorax -2.37939 5.48664 0.86036
lowerneck -9.04332 -6.99598 1.00467
upperneck 24.1229 -7.44815 -9.42919
head 8.55522 -4.20734 -4.05097
rclavicle -8.90555e-014 -1.59028e-015
rhumerus 24.0145 -1.71393 -74.6514
rradius 37.9171
rwrist -11.629
rhand -44.9245 27.3337
rfingers 7.12502
rthumb -17.711 -1.87966
lclavicle -8.90555e-014 -1.59028e-015
lhumerus -27.508 -47.2612 91.8866
lradius 104.511
lwrist -12.3467
lhand -43.536 9.57764
lfingers 7.12502
lthumb -16.3745 38.9064
rfemur -94.8566 -59.1008 41.3549
rtibia 138.572
rfoot -27.6508 14.6005
rtoes -13.4589
lfemur -101.522 16.4102 -25.0941
ltibia 128.423
lfoot -27.2403 -11.6553
ltoes -15.2992
